<mxfile host="app.diagrams.net" modified="2021-12-10T19:02:48.465Z" agent="5.0 (Macintosh; Intel Mac OS X 10_15_7) AppleWebKit/537.36 (KHTML, like Gecko) Chrome/95.0.4638.69 Safari/537.36" etag="oW3SE-7fjueq49jWau0u" version="15.9.4" type="github">
  <diagram id="zb7dYOffVfJfPW6UiPol" name="Page-1">
    <mxGraphModel dx="2102" dy="1198" grid="1" gridSize="10" guides="1" tooltips="1" connect="1" arrows="1" fold="1" page="1" pageScale="1" pageWidth="850" pageHeight="1100" math="0" shadow="0">
      <root>
        <mxCell id="0" />
        <mxCell id="1" parent="0" />
        <mxCell id="2czq7TrPVlN9HwgRSeG8-1" value="Client&amp;nbsp;" style="rounded=1;whiteSpace=wrap;html=1;" parent="1" vertex="1">
          <mxGeometry x="640" y="140" width="310" height="120" as="geometry" />
        </mxCell>
        <mxCell id="2czq7TrPVlN9HwgRSeG8-3" value="" style="endArrow=classic;html=1;rounded=0;" parent="1" edge="1">
          <mxGeometry width="50" height="50" relative="1" as="geometry">
            <mxPoint x="960" y="198.89" as="sourcePoint" />
            <mxPoint x="1050" y="198.89" as="targetPoint" />
          </mxGeometry>
        </mxCell>
        <mxCell id="2czq7TrPVlN9HwgRSeG8-4" value="" style="endArrow=classic;html=1;rounded=0;entryX=0.5;entryY=0;entryDx=0;entryDy=0;" parent="1" edge="1" target="2czq7TrPVlN9HwgRSeG8-8">
          <mxGeometry width="50" height="50" relative="1" as="geometry">
            <mxPoint x="700" y="260" as="sourcePoint" />
            <mxPoint x="700" y="310" as="targetPoint" />
          </mxGeometry>
        </mxCell>
        <mxCell id="2czq7TrPVlN9HwgRSeG8-7" value="Index.js" style="rounded=1;whiteSpace=wrap;html=1;" parent="1" vertex="1">
          <mxGeometry x="1050" y="175" width="140" height="50" as="geometry" />
        </mxCell>
        <mxCell id="2czq7TrPVlN9HwgRSeG8-33" style="edgeStyle=orthogonalEdgeStyle;rounded=0;orthogonalLoop=1;jettySize=auto;html=1;exitX=1;exitY=0.5;exitDx=0;exitDy=0;" parent="1" source="2czq7TrPVlN9HwgRSeG8-8" target="2czq7TrPVlN9HwgRSeG8-28" edge="1">
          <mxGeometry relative="1" as="geometry" />
        </mxCell>
        <mxCell id="2czq7TrPVlN9HwgRSeG8-34" style="edgeStyle=orthogonalEdgeStyle;rounded=0;orthogonalLoop=1;jettySize=auto;html=1;exitX=1;exitY=0.25;exitDx=0;exitDy=0;" parent="1" source="2czq7TrPVlN9HwgRSeG8-8" target="2czq7TrPVlN9HwgRSeG8-30" edge="1">
          <mxGeometry relative="1" as="geometry" />
        </mxCell>
        <mxCell id="2czq7TrPVlN9HwgRSeG8-37" style="edgeStyle=orthogonalEdgeStyle;rounded=0;orthogonalLoop=1;jettySize=auto;html=1;exitX=0.13;exitY=1.1;exitDx=0;exitDy=0;entryX=0.5;entryY=0;entryDx=0;entryDy=0;exitPerimeter=0;" parent="1" source="2czq7TrPVlN9HwgRSeG8-8" target="2czq7TrPVlN9HwgRSeG8-35" edge="1">
          <mxGeometry relative="1" as="geometry" />
        </mxCell>
        <mxCell id="2czq7TrPVlN9HwgRSeG8-8" value="Components" style="rounded=1;whiteSpace=wrap;html=1;" parent="1" vertex="1">
          <mxGeometry x="340" y="340" width="300" height="70" as="geometry" />
        </mxCell>
        <mxCell id="2czq7TrPVlN9HwgRSeG8-9" value="" style="endArrow=classic;html=1;rounded=0;exitX=0;exitY=0.25;exitDx=0;exitDy=0;entryX=0.5;entryY=0;entryDx=0;entryDy=0;" parent="1" source="2czq7TrPVlN9HwgRSeG8-8" target="2czq7TrPVlN9HwgRSeG8-13" edge="1">
          <mxGeometry width="50" height="50" relative="1" as="geometry">
            <mxPoint x="350" y="409.9999999999998" as="sourcePoint" />
            <mxPoint x="240" y="420" as="targetPoint" />
            <Array as="points">
              <mxPoint x="190" y="357" />
            </Array>
          </mxGeometry>
        </mxCell>
        <mxCell id="2czq7TrPVlN9HwgRSeG8-10" value="" style="endArrow=classic;html=1;rounded=0;entryX=0.5;entryY=0;entryDx=0;entryDy=0;exitX=0;exitY=0.75;exitDx=0;exitDy=0;" parent="1" source="2czq7TrPVlN9HwgRSeG8-8" target="2czq7TrPVlN9HwgRSeG8-17" edge="1">
          <mxGeometry width="50" height="50" relative="1" as="geometry">
            <mxPoint x="370" y="409.9999999999998" as="sourcePoint" />
            <mxPoint x="300" y="459.9999999999998" as="targetPoint" />
            <Array as="points">
              <mxPoint x="260" y="392" />
            </Array>
          </mxGeometry>
        </mxCell>
        <mxCell id="2czq7TrPVlN9HwgRSeG8-12" value="" style="endArrow=classic;html=1;rounded=0;entryX=0.5;entryY=0;entryDx=0;entryDy=0;exitX=0.75;exitY=1;exitDx=0;exitDy=0;" parent="1" source="2czq7TrPVlN9HwgRSeG8-8" target="2czq7TrPVlN9HwgRSeG8-26" edge="1">
          <mxGeometry width="50" height="50" relative="1" as="geometry">
            <mxPoint x="420" y="409.9999999999998" as="sourcePoint" />
            <mxPoint x="480" y="459.9999999999998" as="targetPoint" />
            <Array as="points" />
          </mxGeometry>
        </mxCell>
        <mxCell id="2czq7TrPVlN9HwgRSeG8-51" style="edgeStyle=orthogonalEdgeStyle;rounded=0;orthogonalLoop=1;jettySize=auto;html=1;exitX=0.25;exitY=1;exitDx=0;exitDy=0;entryX=1;entryY=0.5;entryDx=0;entryDy=0;" parent="1" source="2czq7TrPVlN9HwgRSeG8-13" target="2czq7TrPVlN9HwgRSeG8-38" edge="1">
          <mxGeometry relative="1" as="geometry" />
        </mxCell>
        <mxCell id="2czq7TrPVlN9HwgRSeG8-52" style="edgeStyle=orthogonalEdgeStyle;rounded=0;orthogonalLoop=1;jettySize=auto;html=1;exitX=0.25;exitY=0;exitDx=0;exitDy=0;entryX=1;entryY=0.5;entryDx=0;entryDy=0;" parent="1" source="2czq7TrPVlN9HwgRSeG8-13" target="2czq7TrPVlN9HwgRSeG8-39" edge="1">
          <mxGeometry relative="1" as="geometry" />
        </mxCell>
        <mxCell id="2czq7TrPVlN9HwgRSeG8-13" value="Authentication" style="rounded=1;whiteSpace=wrap;html=1;" parent="1" vertex="1">
          <mxGeometry x="150" y="580" width="80" height="40" as="geometry" />
        </mxCell>
        <mxCell id="2czq7TrPVlN9HwgRSeG8-58" style="edgeStyle=orthogonalEdgeStyle;rounded=0;orthogonalLoop=1;jettySize=auto;html=1;exitX=1;exitY=0.5;exitDx=0;exitDy=0;entryX=0.5;entryY=0;entryDx=0;entryDy=0;" parent="1" source="2czq7TrPVlN9HwgRSeG8-17" target="2czq7TrPVlN9HwgRSeG8-56" edge="1">
          <mxGeometry relative="1" as="geometry" />
        </mxCell>
        <mxCell id="2czq7TrPVlN9HwgRSeG8-60" style="edgeStyle=orthogonalEdgeStyle;rounded=0;orthogonalLoop=1;jettySize=auto;html=1;exitX=1;exitY=0.75;exitDx=0;exitDy=0;entryX=0.75;entryY=0;entryDx=0;entryDy=0;" parent="1" source="2czq7TrPVlN9HwgRSeG8-17" target="2czq7TrPVlN9HwgRSeG8-54" edge="1">
          <mxGeometry relative="1" as="geometry" />
        </mxCell>
        <mxCell id="2czq7TrPVlN9HwgRSeG8-61" style="edgeStyle=orthogonalEdgeStyle;rounded=0;orthogonalLoop=1;jettySize=auto;html=1;exitX=0;exitY=0.75;exitDx=0;exitDy=0;entryX=0.25;entryY=0;entryDx=0;entryDy=0;" parent="1" source="2czq7TrPVlN9HwgRSeG8-17" target="2czq7TrPVlN9HwgRSeG8-55" edge="1">
          <mxGeometry relative="1" as="geometry" />
        </mxCell>
        <mxCell id="2czq7TrPVlN9HwgRSeG8-62" style="edgeStyle=orthogonalEdgeStyle;rounded=0;orthogonalLoop=1;jettySize=auto;html=1;exitX=0;exitY=0.5;exitDx=0;exitDy=0;entryX=0.25;entryY=0;entryDx=0;entryDy=0;" parent="1" source="2czq7TrPVlN9HwgRSeG8-17" target="2czq7TrPVlN9HwgRSeG8-53" edge="1">
          <mxGeometry relative="1" as="geometry" />
        </mxCell>
        <mxCell id="2czq7TrPVlN9HwgRSeG8-17" value="Common" style="rounded=1;whiteSpace=wrap;html=1;" parent="1" vertex="1">
          <mxGeometry x="220" y="690" width="80" height="40" as="geometry" />
        </mxCell>
        <mxCell id="2czq7TrPVlN9HwgRSeG8-20" value="Navbar" style="rounded=1;whiteSpace=wrap;html=1;" parent="1" vertex="1">
          <mxGeometry x="440" y="580" width="70" height="40" as="geometry" />
        </mxCell>
        <mxCell id="2czq7TrPVlN9HwgRSeG8-22" value="" style="endArrow=classic;html=1;rounded=0;entryX=0.5;entryY=0;entryDx=0;entryDy=0;" parent="1" target="2czq7TrPVlN9HwgRSeG8-20" edge="1">
          <mxGeometry width="50" height="50" relative="1" as="geometry">
            <mxPoint x="475" y="410" as="sourcePoint" />
            <mxPoint x="560" y="460" as="targetPoint" />
            <Array as="points">
              <mxPoint x="475" y="440" />
            </Array>
          </mxGeometry>
        </mxCell>
        <mxCell id="2czq7TrPVlN9HwgRSeG8-23" value="" style="endArrow=classic;html=1;rounded=0;exitX=1;exitY=0.75;exitDx=0;exitDy=0;entryX=0.398;entryY=0.018;entryDx=0;entryDy=0;entryPerimeter=0;" parent="1" source="2czq7TrPVlN9HwgRSeG8-8" target="2czq7TrPVlN9HwgRSeG8-27" edge="1">
          <mxGeometry width="50" height="50" relative="1" as="geometry">
            <mxPoint x="420" y="389.9999999999998" as="sourcePoint" />
            <mxPoint x="640" y="460" as="targetPoint" />
            <Array as="points" />
          </mxGeometry>
        </mxCell>
        <mxCell id="2czq7TrPVlN9HwgRSeG8-48" style="edgeStyle=orthogonalEdgeStyle;rounded=0;orthogonalLoop=1;jettySize=auto;html=1;exitX=0;exitY=0.75;exitDx=0;exitDy=0;entryX=0.5;entryY=0;entryDx=0;entryDy=0;" parent="1" source="2czq7TrPVlN9HwgRSeG8-26" target="2czq7TrPVlN9HwgRSeG8-43" edge="1">
          <mxGeometry relative="1" as="geometry" />
        </mxCell>
        <mxCell id="2czq7TrPVlN9HwgRSeG8-50" style="edgeStyle=orthogonalEdgeStyle;rounded=0;orthogonalLoop=1;jettySize=auto;html=1;exitX=1;exitY=0.75;exitDx=0;exitDy=0;entryX=0.5;entryY=0;entryDx=0;entryDy=0;" parent="1" source="2czq7TrPVlN9HwgRSeG8-26" target="2czq7TrPVlN9HwgRSeG8-45" edge="1">
          <mxGeometry relative="1" as="geometry" />
        </mxCell>
        <mxCell id="2czq7TrPVlN9HwgRSeG8-26" value="Report" style="rounded=1;whiteSpace=wrap;html=1;" parent="1" vertex="1">
          <mxGeometry x="530" y="680" width="70" height="40" as="geometry" />
        </mxCell>
        <mxCell id="2czq7TrPVlN9HwgRSeG8-27" value="Sidebar" style="rounded=1;whiteSpace=wrap;html=1;" parent="1" vertex="1">
          <mxGeometry x="620" y="580" width="70" height="40" as="geometry" />
        </mxCell>
        <mxCell id="2czq7TrPVlN9HwgRSeG8-28" value="TodayTask" style="rounded=1;whiteSpace=wrap;html=1;" parent="1" vertex="1">
          <mxGeometry x="720" y="580" width="70" height="40" as="geometry" />
        </mxCell>
        <mxCell id="2czq7TrPVlN9HwgRSeG8-64" style="edgeStyle=orthogonalEdgeStyle;rounded=0;orthogonalLoop=1;jettySize=auto;html=1;exitX=0.5;exitY=1;exitDx=0;exitDy=0;" parent="1" source="2czq7TrPVlN9HwgRSeG8-30" edge="1">
          <mxGeometry relative="1" as="geometry">
            <mxPoint x="860.2857142857142" y="750" as="targetPoint" />
          </mxGeometry>
        </mxCell>
        <mxCell id="2czq7TrPVlN9HwgRSeG8-30" value="UpcomingTasks" style="rounded=1;whiteSpace=wrap;html=1;" parent="1" vertex="1">
          <mxGeometry x="810" y="680" width="100" height="40" as="geometry" />
        </mxCell>
        <mxCell id="2czq7TrPVlN9HwgRSeG8-35" value="UserGuide" style="rounded=1;whiteSpace=wrap;html=1;" parent="1" vertex="1">
          <mxGeometry x="330" y="580" width="100" height="40" as="geometry" />
        </mxCell>
        <mxCell id="2czq7TrPVlN9HwgRSeG8-38" value="Sign In" style="rounded=1;whiteSpace=wrap;html=1;" parent="1" vertex="1">
          <mxGeometry x="50" y="630" width="80" height="40" as="geometry" />
        </mxCell>
        <mxCell id="2czq7TrPVlN9HwgRSeG8-39" value="Register" style="rounded=1;whiteSpace=wrap;html=1;" parent="1" vertex="1">
          <mxGeometry x="50" y="510" width="80" height="40" as="geometry" />
        </mxCell>
        <mxCell id="2czq7TrPVlN9HwgRSeG8-43" value="Weekly&amp;nbsp;" style="rounded=1;whiteSpace=wrap;html=1;" parent="1" vertex="1">
          <mxGeometry x="470" y="750" width="70" height="50" as="geometry" />
        </mxCell>
        <mxCell id="2czq7TrPVlN9HwgRSeG8-45" value="Daily" style="rounded=1;whiteSpace=wrap;html=1;" parent="1" vertex="1">
          <mxGeometry x="600" y="750" width="70" height="50" as="geometry" />
        </mxCell>
        <mxCell id="2czq7TrPVlN9HwgRSeG8-53" value="Form" style="rounded=1;whiteSpace=wrap;html=1;" parent="1" vertex="1">
          <mxGeometry x="60" y="760" width="80" height="40" as="geometry" />
        </mxCell>
        <mxCell id="2czq7TrPVlN9HwgRSeG8-54" value="Style" style="rounded=1;whiteSpace=wrap;html=1;" parent="1" vertex="1">
          <mxGeometry x="270" y="760" width="80" height="40" as="geometry" />
        </mxCell>
        <mxCell id="2czq7TrPVlN9HwgRSeG8-55" value="Link&amp;nbsp;" style="rounded=1;whiteSpace=wrap;html=1;" parent="1" vertex="1">
          <mxGeometry x="170" y="760" width="80" height="40" as="geometry" />
        </mxCell>
        <mxCell id="2czq7TrPVlN9HwgRSeG8-56" value="Task Detail" style="rounded=1;whiteSpace=wrap;html=1;" parent="1" vertex="1">
          <mxGeometry x="370" y="760" width="80" height="40" as="geometry" />
        </mxCell>
        <mxCell id="2czq7TrPVlN9HwgRSeG8-65" value="Calendar" style="rounded=1;whiteSpace=wrap;html=1;" parent="1" vertex="1">
          <mxGeometry x="830" y="750" width="70" height="50" as="geometry" />
        </mxCell>
        <mxCell id="W48yzWec3RaBLDurh2JA-1" value="" style="endArrow=classic;html=1;rounded=0;entryX=0.5;entryY=0;entryDx=0;entryDy=0;" edge="1" parent="1" target="W48yzWec3RaBLDurh2JA-2">
          <mxGeometry width="50" height="50" relative="1" as="geometry">
            <mxPoint x="890" y="260" as="sourcePoint" />
            <mxPoint x="1050" y="350" as="targetPoint" />
          </mxGeometry>
        </mxCell>
        <mxCell id="W48yzWec3RaBLDurh2JA-6" style="edgeStyle=orthogonalEdgeStyle;rounded=0;orthogonalLoop=1;jettySize=auto;html=1;exitX=0.25;exitY=1;exitDx=0;exitDy=0;entryX=0.5;entryY=0;entryDx=0;entryDy=0;" edge="1" parent="1" source="W48yzWec3RaBLDurh2JA-2" target="W48yzWec3RaBLDurh2JA-3">
          <mxGeometry relative="1" as="geometry" />
        </mxCell>
        <mxCell id="W48yzWec3RaBLDurh2JA-7" style="edgeStyle=orthogonalEdgeStyle;rounded=0;orthogonalLoop=1;jettySize=auto;html=1;exitX=0.5;exitY=1;exitDx=0;exitDy=0;entryX=0.5;entryY=0;entryDx=0;entryDy=0;" edge="1" parent="1" source="W48yzWec3RaBLDurh2JA-2" target="W48yzWec3RaBLDurh2JA-4">
          <mxGeometry relative="1" as="geometry" />
        </mxCell>
        <mxCell id="W48yzWec3RaBLDurh2JA-8" style="edgeStyle=orthogonalEdgeStyle;rounded=0;orthogonalLoop=1;jettySize=auto;html=1;exitX=0.75;exitY=1;exitDx=0;exitDy=0;entryX=0.5;entryY=0;entryDx=0;entryDy=0;" edge="1" parent="1" source="W48yzWec3RaBLDurh2JA-2" target="W48yzWec3RaBLDurh2JA-5">
          <mxGeometry relative="1" as="geometry" />
        </mxCell>
        <mxCell id="W48yzWec3RaBLDurh2JA-2" value="Utils" style="rounded=1;whiteSpace=wrap;html=1;" vertex="1" parent="1">
          <mxGeometry x="1060" y="350" width="300" height="70" as="geometry" />
        </mxCell>
        <mxCell id="W48yzWec3RaBLDurh2JA-11" style="edgeStyle=orthogonalEdgeStyle;rounded=0;orthogonalLoop=1;jettySize=auto;html=1;exitX=0.25;exitY=1;exitDx=0;exitDy=0;entryX=0.5;entryY=0;entryDx=0;entryDy=0;" edge="1" parent="1" source="W48yzWec3RaBLDurh2JA-3" target="W48yzWec3RaBLDurh2JA-9">
          <mxGeometry relative="1" as="geometry" />
        </mxCell>
        <mxCell id="W48yzWec3RaBLDurh2JA-12" style="edgeStyle=orthogonalEdgeStyle;rounded=0;orthogonalLoop=1;jettySize=auto;html=1;exitX=0.75;exitY=1;exitDx=0;exitDy=0;entryX=0.5;entryY=0;entryDx=0;entryDy=0;" edge="1" parent="1" source="W48yzWec3RaBLDurh2JA-3" target="W48yzWec3RaBLDurh2JA-10">
          <mxGeometry relative="1" as="geometry" />
        </mxCell>
        <mxCell id="W48yzWec3RaBLDurh2JA-3" value="GraphQL" style="rounded=1;whiteSpace=wrap;html=1;" vertex="1" parent="1">
          <mxGeometry x="970" y="480" width="140" height="50" as="geometry" />
        </mxCell>
        <mxCell id="W48yzWec3RaBLDurh2JA-19" style="edgeStyle=orthogonalEdgeStyle;rounded=0;orthogonalLoop=1;jettySize=auto;html=1;exitX=0.25;exitY=1;exitDx=0;exitDy=0;entryX=0.5;entryY=0;entryDx=0;entryDy=0;" edge="1" parent="1" source="W48yzWec3RaBLDurh2JA-4" target="W48yzWec3RaBLDurh2JA-13">
          <mxGeometry relative="1" as="geometry" />
        </mxCell>
        <mxCell id="W48yzWec3RaBLDurh2JA-20" style="edgeStyle=orthogonalEdgeStyle;rounded=0;orthogonalLoop=1;jettySize=auto;html=1;exitX=0.5;exitY=1;exitDx=0;exitDy=0;entryX=0.5;entryY=0;entryDx=0;entryDy=0;" edge="1" parent="1" source="W48yzWec3RaBLDurh2JA-4" target="W48yzWec3RaBLDurh2JA-14">
          <mxGeometry relative="1" as="geometry" />
        </mxCell>
        <mxCell id="W48yzWec3RaBLDurh2JA-22" style="edgeStyle=orthogonalEdgeStyle;rounded=0;orthogonalLoop=1;jettySize=auto;html=1;exitX=0.75;exitY=1;exitDx=0;exitDy=0;entryX=0.5;entryY=0;entryDx=0;entryDy=0;" edge="1" parent="1" source="W48yzWec3RaBLDurh2JA-4" target="W48yzWec3RaBLDurh2JA-18">
          <mxGeometry relative="1" as="geometry" />
        </mxCell>
        <mxCell id="W48yzWec3RaBLDurh2JA-4" value="Hooks&lt;span style=&quot;color: rgba(0 , 0 , 0 , 0) ; font-family: monospace ; font-size: 0px&quot;&gt;%3CmxGraphModel%3E%3Croot%3E%3CmxCell%20id%3D%220%22%2F%3E%3CmxCell%20id%3D%221%22%20parent%3D%220%22%2F%3E%3CmxCell%20id%3D%222%22%20value%3D%22GraphQL%22%20style%3D%22rounded%3D1%3BwhiteSpace%3Dwrap%3Bhtml%3D1%3B%22%20vertex%3D%221%22%20parent%3D%221%22%3E%3CmxGeometry%20x%3D%22970%22%20y%3D%22480%22%20width%3D%22140%22%20height%3D%2250%22%20as%3D%22geometry%22%2F%3E%3C%2FmxCell%3E%3C%2Froot%3E%3C%2FmxGraphModel%3E&lt;/span&gt;&lt;span style=&quot;color: rgba(0 , 0 , 0 , 0) ; font-family: monospace ; font-size: 0px&quot;&gt;%3CmxGraphModel%3E%3Croot%3E%3CmxCell%20id%3D%220%22%2F%3E%3CmxCell%20id%3D%221%22%20parent%3D%220%22%2F%3E%3CmxCell%20id%3D%222%22%20value%3D%22GraphQL%22%20style%3D%22rounded%3D1%3BwhiteSpace%3Dwrap%3Bhtml%3D1%3B%22%20vertex%3D%221%22%20parent%3D%221%22%3E%3CmxGeometry%20x%3D%22970%22%20y%3D%22480%22%20width%3D%22140%22%20height%3D%2250%22%20as%3D%22geometry%22%2F%3E%3C%2FmxCell%3E%3C%2Froot%3E%3C%2FmxGraphModel%3E&lt;/span&gt;&lt;span style=&quot;color: rgba(0 , 0 , 0 , 0) ; font-family: monospace ; font-size: 0px&quot;&gt;%3CmxGraphModel%3E%3Croot%3E%3CmxCell%20id%3D%220%22%2F%3E%3CmxCell%20id%3D%221%22%20parent%3D%220%22%2F%3E%3CmxCell%20id%3D%222%22%20value%3D%22GraphQL%22%20style%3D%22rounded%3D1%3BwhiteSpace%3Dwrap%3Bhtml%3D1%3B%22%20vertex%3D%221%22%20parent%3D%221%22%3E%3CmxGeometry%20x%3D%22970%22%20y%3D%22480%22%20width%3D%22140%22%20height%3D%2250%22%20as%3D%22geometry%22%2F%3E%3C%2FmxCell%3E%3C%2Froot%3E%3C%2FmxGraphModel%3E&lt;/span&gt;" style="rounded=1;whiteSpace=wrap;html=1;" vertex="1" parent="1">
          <mxGeometry x="1150" y="660" width="140" height="50" as="geometry" />
        </mxCell>
        <mxCell id="W48yzWec3RaBLDurh2JA-25" style="edgeStyle=orthogonalEdgeStyle;rounded=0;orthogonalLoop=1;jettySize=auto;html=1;exitX=0.25;exitY=1;exitDx=0;exitDy=0;entryX=0.5;entryY=0;entryDx=0;entryDy=0;" edge="1" parent="1" source="W48yzWec3RaBLDurh2JA-5" target="W48yzWec3RaBLDurh2JA-23">
          <mxGeometry relative="1" as="geometry" />
        </mxCell>
        <mxCell id="W48yzWec3RaBLDurh2JA-26" style="edgeStyle=orthogonalEdgeStyle;rounded=0;orthogonalLoop=1;jettySize=auto;html=1;exitX=0.75;exitY=1;exitDx=0;exitDy=0;entryX=0.5;entryY=0;entryDx=0;entryDy=0;" edge="1" parent="1" source="W48yzWec3RaBLDurh2JA-5" target="W48yzWec3RaBLDurh2JA-24">
          <mxGeometry relative="1" as="geometry" />
        </mxCell>
        <mxCell id="W48yzWec3RaBLDurh2JA-5" value="Validation" style="rounded=1;whiteSpace=wrap;html=1;" vertex="1" parent="1">
          <mxGeometry x="1410" y="480" width="140" height="50" as="geometry" />
        </mxCell>
        <mxCell id="W48yzWec3RaBLDurh2JA-9" value="Query.js" style="rounded=1;whiteSpace=wrap;html=1;" vertex="1" parent="1">
          <mxGeometry x="880" y="580" width="140" height="50" as="geometry" />
        </mxCell>
        <mxCell id="W48yzWec3RaBLDurh2JA-10" value="Mutation.js" style="rounded=1;whiteSpace=wrap;html=1;" vertex="1" parent="1">
          <mxGeometry x="1050" y="580" width="140" height="50" as="geometry" />
        </mxCell>
        <mxCell id="W48yzWec3RaBLDurh2JA-13" value="useAuth.js" style="rounded=1;whiteSpace=wrap;html=1;" vertex="1" parent="1">
          <mxGeometry x="1050" y="760" width="100" height="50" as="geometry" />
        </mxCell>
        <mxCell id="W48yzWec3RaBLDurh2JA-14" value="useReport.js" style="rounded=1;whiteSpace=wrap;html=1;" vertex="1" parent="1">
          <mxGeometry x="1170" y="760" width="100" height="50" as="geometry" />
        </mxCell>
        <mxCell id="W48yzWec3RaBLDurh2JA-18" value="useWeeklyReport.js" style="rounded=1;whiteSpace=wrap;html=1;" vertex="1" parent="1">
          <mxGeometry x="1300" y="760" width="120" height="50" as="geometry" />
        </mxCell>
        <mxCell id="W48yzWec3RaBLDurh2JA-23" value="authenticationValidation.js" style="rounded=1;whiteSpace=wrap;html=1;" vertex="1" parent="1">
          <mxGeometry x="1280" y="570" width="170" height="50" as="geometry" />
        </mxCell>
        <mxCell id="W48yzWec3RaBLDurh2JA-24" value="taskFormValidation.js" style="rounded=1;whiteSpace=wrap;html=1;" vertex="1" parent="1">
          <mxGeometry x="1540" y="570" width="140" height="50" as="geometry" />
        </mxCell>
      </root>
    </mxGraphModel>
  </diagram>
</mxfile>
